<?xml version="1.0" standalone="no"?>
<!DOCTYPE svg PUBLIC "-//W3C//DTD SVG 20010904//EN"
 "http://www.w3.org/TR/2001/REC-SVG-20010904/DTD/svg10.dtd">
<svg version="1.0" xmlns="http://www.w3.org/2000/svg"
 width="1024.000000pt" height="1024.000000pt" viewBox="0 0 1024.000000 1024.000000"
 preserveAspectRatio="xMidYMid meet">

<g transform="translate(0.000000,1024.000000) scale(0.100000,-0.100000)"
fill="currentColor" stroke="none">
<path d="M6420 9099 c-159 -19 -397 -110 -517 -198 -40 -29 -55 -62 -35 -75 5
-3 69 6 142 19 172 32 180 31 88 -9 -97 -42 -172 -95 -176 -124 -3 -17 2 -22
18 -22 16 0 188 53 310 97 8 3 -12 -20 -45 -50 -40 -37 -57 -59 -50 -65 15
-16 89 14 268 108 l159 83 45 -44 c148 -144 577 -658 590 -708 4 -17 -9 -87
-36 -196 -75 -296 -92 -339 -201 -514 -119 -188 -144 -220 -204 -252 -25 -13
-46 -29 -46 -36 0 -6 -22 -55 -49 -110 -52 -103 -129 -199 -190 -237 -126 -79
-306 -58 -380 44 -17 23 -33 50 -36 60 -5 16 -11 16 -93 -6 -122 -31 -199 -61
-259 -101 -80 -53 -513 -551 -685 -788 -126 -174 -151 -234 -123 -301 33 -80
92 -120 421 -292 126 -66 321 -170 434 -231 175 -94 212 -111 250 -111 87 0
143 57 190 193 40 115 40 170 1 206 -24 22 -32 44 -46 113 -28 139 -75 198
-125 153 -37 -34 -80 -150 -91 -247 -6 -51 -14 -97 -19 -102 -8 -8 -51 26
-369 298 l-164 140 99 95 c55 53 163 154 241 224 140 125 143 127 149 100 27
-122 61 -186 163 -299 30 -32 72 -103 119 -197 39 -81 72 -150 72 -153 0 -4
23 -53 51 -110 l51 -103 -40 -88 c-22 -48 -49 -115 -60 -148 -61 -187 -169
-407 -329 -673 -189 -314 -294 -534 -351 -739 -23 -85 -27 -116 -26 -233 0
-121 3 -143 27 -209 53 -147 140 -264 359 -486 97 -98 158 -168 158 -180 0
-11 -19 -74 -42 -140 -47 -137 -47 -154 7 -214 l35 -38 -66 -149 c-37 -82 -69
-167 -72 -188 -7 -51 17 -95 69 -126 26 -17 56 -50 86 -99 56 -90 113 -131
182 -131 26 1 57 7 71 15 14 8 40 14 58 15 69 0 142 55 142 106 0 27 -9 40
-52 76 -99 82 -186 170 -198 199 -11 25 -10 36 5 69 23 52 52 76 98 83 56 9
88 37 126 112 61 118 83 142 148 160 32 9 90 29 128 45 39 17 79 30 90 30 30
0 168 -84 198 -120 38 -45 49 -90 54 -232 8 -184 6 -188 -93 -285 -96 -94
-104 -116 -47 -140 96 -40 297 39 348 137 7 14 21 71 30 125 22 130 52 201
122 293 84 108 93 124 93 159 0 51 -45 93 -139 131 -80 33 -153 82 -241 160
l-45 40 96 99 c93 96 161 179 191 236 l14 28 58 -123 c78 -166 173 -339 198
-360 62 -53 222 29 294 151 17 28 23 32 49 26 166 -34 294 9 360 121 29 49 31
50 77 51 96 1 193 73 244 181 20 41 36 62 52 66 60 17 180 111 230 179 l33 46
-23 12 c-250 130 -447 278 -653 490 -254 262 -455 570 -625 960 -50 114 -167
312 -258 434 -36 50 -112 137 -168 195 l-102 105 -51 -43 c-46 -39 -138 -88
-148 -79 -2 3 7 11 19 19 36 24 78 70 95 102 10 19 21 90 29 191 8 88 35 333
60 545 25 212 49 419 54 460 5 46 35 157 75 280 168 518 263 931 253 1098 -6
102 -29 145 -137 256 -154 159 -538 483 -708 598 -127 85 -211 105 -363 87z"/>
<path d="M5996 8265 c-86 -22 -184 -78 -259 -148 -115 -106 -167 -226 -120
-273 14 -13 17 -37 18 -123 0 -98 2 -109 28 -148 33 -52 35 -106 7 -188 -25
-72 -25 -71 4 -90 21 -14 28 -14 70 0 53 18 66 14 66 -22 0 -37 30 -93 57
-106 12 -5 23 -19 23 -29 0 -28 58 -58 113 -58 50 0 97 18 134 53 l22 20 11
-27 c17 -45 12 -98 -14 -146 -22 -42 -23 -48 -11 -84 27 -78 93 -114 187 -103
56 7 139 45 190 87 40 33 119 145 143 204 14 32 13 36 -1 48 -58 45 -82 81
-106 154 -30 92 -42 156 -34 181 5 15 14 18 45 15 52 -5 99 11 139 49 45 42
63 82 70 153 3 37 12 70 23 85 26 33 25 124 -2 197 -52 138 -179 207 -283 155
l-38 -20 -56 58 c-83 84 -151 113 -272 117 -61 2 -116 -2 -154 -11z"/>
<path d="M2638 6601 c-93 -37 -146 -95 -176 -193 -12 -38 -29 -64 -59 -92
-157 -141 -128 -387 69 -592 l79 -82 6 -100 6 -100 -34 -7 c-47 -10 -59 -22
-59 -60 l0 -32 -112 -33 c-298 -89 -462 -183 -562 -323 -96 -135 -300 -591
-406 -907 -53 -158 -63 -262 -32 -332 51 -116 240 -261 537 -412 61 -30 106
-56 101 -56 -6 0 -44 10 -85 22 -42 11 -106 21 -143 22 -78 1 -80 0 -196 -139
-174 -207 -251 -367 -268 -550 -13 -146 30 -261 137 -367 54 -53 90 -78 181
-122 188 -93 352 -125 648 -129 l155 -2 3 537 2 538 28 6 c15 3 43 11 62 17
32 11 27 12 -70 18 -73 4 -123 13 -165 29 -73 27 -92 42 -39 29 62 -14 179
-10 324 11 171 25 218 25 316 0 67 -17 229 -69 243 -77 20 -13 -27 -9 -148 12
-78 14 -155 25 -171 25 -24 0 -174 -52 -288 -100 l-22 -10 2 -527 3 -527 145
-47 c80 -26 305 -100 500 -164 247 -81 363 -114 380 -110 33 9 547 298 1470
828 l235 135 -1 488 c0 269 -4 500 -8 513 -15 43 13 13 38 -44 29 -61 39 -71
56 -50 18 22 4 99 -31 172 -24 49 -42 71 -86 103 -81 58 -223 98 -406 115 -43
4 -81 13 -85 20 -4 7 -86 54 -182 105 -407 215 -535 287 -567 320 -19 19 -60
73 -91 120 -343 525 -360 540 -741 716 l-83 38 68 17 c55 13 74 24 105 56 34
36 69 122 69 167 0 9 13 18 36 22 68 13 85 86 46 197 -20 57 -21 58 -2 77 30
30 41 89 34 182 -6 76 -4 88 17 128 19 37 24 60 23 125 0 102 -35 187 -102
245 -51 46 -88 55 -179 47 -59 -6 -68 -4 -97 18 -18 13 -63 36 -102 51 -94 36
-255 44 -326 15z m-503 -2257 c-15 -86 -81 -396 -90 -424 -4 -12 5 -26 25 -43
50 -42 277 -180 399 -243 l114 -58 171 -7 c183 -8 229 -17 349 -71 l68 -31 70
33 c38 19 76 41 83 50 11 13 55 444 69 677 l2 41 72 -86 c136 -165 209 -238
265 -264 30 -14 116 -47 192 -74 l139 -48 -134 -63 c-420 -200 -719 -347 -719
-354 0 -5 10 -14 23 -20 33 -17 109 -80 103 -86 -3 -3 -63 33 -134 80 -227
150 -255 159 -492 155 l-166 -2 -159 83 c-199 103 -370 218 -453 303 l-32 34
122 251 c67 139 124 251 125 249 2 -1 -4 -38 -12 -82z m2845 -712 l23 -19 -29
-20 c-28 -20 -118 -66 -839 -434 -187 -95 -403 -205 -480 -245 l-140 -73 -8
-428 c-12 -636 -29 -599 -43 93 l-7 321 -61 15 c-361 90 -674 172 -686 179
-43 24 154 -5 445 -67 264 -55 292 -59 320 -44 31 16 32 30 4 30 -12 0 -76 14
-142 32 l-121 32 34 14 c19 8 48 11 65 8 16 -3 86 -15 155 -26 l124 -21 48 22
c26 12 48 26 48 31 0 4 -2 8 -4 8 -8 0 -211 62 -219 67 -5 3 -4 9 2 12 12 8
83 1 223 -20 81 -12 89 -12 123 7 20 10 39 22 41 26 2 3 -48 19 -111 34 -63
16 -115 31 -115 34 0 3 15 12 34 18 30 11 53 9 166 -14 l132 -26 49 23 c27 12
49 26 49 30 0 9 6 7 -147 45 -179 46 -96 60 127 23 l126 -21 48 24 47 24 -118
34 c-65 18 -122 37 -128 42 -15 13 89 10 233 -8 l133 -17 49 23 c27 13 47 26
45 30 -3 4 -55 20 -117 35 -62 15 -120 32 -128 37 -12 7 -10 8 5 4 11 -3 97
-8 190 -11 l170 -7 70 30 c39 16 115 52 170 80 55 28 105 51 111 51 7 1 22 -7
34 -17z"/>
</g>
</svg>
